<svg version="1" xmlns="http://www.w3.org/2000/svg" width="37.207" height="100" viewBox="0 0 37.207 100"><circle cx="18.118" cy="8.159" r="8.159"/><path d="M8.472 95.426c0 2.524 2.05 4.574 4.574 4.574 2.53 0 4.576-2.05 4.576-4.574l.004-38.374h2.037l-.013 38.374c0 2.524 2.048 4.574 4.574 4.574s4.573-2.05 4.573-4.574l.02-66.158h2.006v24.38c0 4.905 6.398 4.905 6.384 0v-24.9c0-5.418-3.184-10.728-9.523-10.728l-18.288-.008C3.62 18.012 0 22.722 0 28.6v25.05c0 4.868 6.433 4.868 6.433 0V29.27H8.48l-.008 66.156z"/></svg>