<svg xmlns="http://www.w3.org/2000/svg" width="100" height="100" viewBox="5.0 -10.0 100.0 135.0"><circle cx="-74.666" cy="-75.211" r="13.519"/><circle cx="-74.666" cy="-75.211" r=".693"/><path d="M-74.706-88.063h.275v2.08h-.276zM-81.124-86.32l.24-.14 1.037 1.804-.24.137zM-85.82-81.603l.137-.24 1.802 1.04-.14.24zM-87.518-75.447h2.08v.276h-2.08zM-85.776-68.747l-.137-.24 1.8-1.038.14.24zM-81.05-64.06l-.24-.138 1.04-1.8.24.137zM-74.9-64.44h.274v2.082h-.275zM-68.207-64.1l-.24.137-1.037-1.802.24-.138zM-63.52-68.816l-.14.24-1.798-1.046.138-.24zM-63.894-75.25h2.08v.275h-2.08zM-63.547-81.67l.138.24-1.804 1.036-.138-.24zM-68.27-86.362l.238.14-1.046 1.797-.24-.14zM-74.722-75.11h8.023M-74.722-75.2s2.006-.395 4.012-.612c.5-.058 1.003-.195 1.473-.21.47.002.91.092 1.285.21.753.22 1.254.613 1.254.613v.176s-.5.393-1.254.613c-.376.117-.814.207-1.285.21-.47-.017-.972-.153-1.473-.21-2.006-.218-4.012-.613-4.012-.614v-.175zM-74.618-75.193v-9.448"/><path d="M-74.706-75.193s-.395-2.362-.612-4.724c-.06-.59-.195-1.18-.21-1.735.002-.553.092-1.07.21-1.513.22-.886.613-1.476.612-1.476h.176s.393.59.612 1.475c.118.443.208.96.21 1.513-.015.554-.15 1.145-.21 1.735-.218 2.362-.612 4.724-.612 4.724h-.176zM58.625-57.188c0-.99-.722-1.807-1.667-1.966 1.05.566 1.667 1.24 1.667 1.966zM39.542-59.155c-.945.16-1.667.976-1.667 1.966 0-.724.616-1.398 1.667-1.965zM48.25-53.563c-5.73 0-10.375-1.623-10.375-3.625v31.835c0 1.104.896 2 2 2h16.75c1.104 0 2-.896 2-2V-57.188c0 2.002-4.646 3.625-10.375 3.625z"/><path d="M56.958-59.834c-1.85-.997-5.055-1.66-8.708-1.66s-6.86.663-8.708 1.66c-1.05.566-1.667 1.24-1.667 1.966 0 2.002 4.646 3.625 10.375 3.625s10.375-1.623 10.375-3.625c0-.726-.616-1.4-1.667-1.966zM52-48.042h-.5M52.123-93.242h.5M48.5-48.042H48M48-93.47h.5"/><path d="M59.294-84.19l.803.345-11.755 27.3-.803-.346z"/><circle cx="60.639" cy="-86.223" r="1.5"/><path d="M61.627-88.52s-3.365-11.79 3.754-8.728-3.753 8.728-3.753 8.728zM58.76-87.872s-12.252-.442-7.14-6.267c5.11-5.824 7.14 6.268 7.14 6.268zM58.49-84.946s-4.208 11.517-8.167 4.855c-3.96-6.663 8.167-4.856 8.167-4.856zM61.19-83.785s9.652 7.56 2.094 9.268c-7.56 1.708-2.095-9.268-2.095-9.268zM63.127-85.993s10.176-6.845 9.463.872c-.713 7.718-9.463-.873-9.463-.873zM52.322-67.034s8.945-4.358 8.75.14c-.198 4.497-8.75-.14-8.75-.14zM37.044-83.485l.828-.276 9.38 28.204-.828.275z"/><circle cx="36.698" cy="-85.9" r="1.5"/><path d="M35.905-88.272s-10.355-6.565-3.003-9.014c7.354-2.45 3.003 9.014 3.003 9.014zM34.194-85.88s-9.44 7.818-9.5.07c-.056-7.75 9.5-.07 9.5-.07zM35.94-83.517s4.52 11.398-2.868 9.058c-7.39-2.34 2.868-9.057 2.868-9.057zM38.728-84.446s12.238-.775 7.73 5.528c-4.51 6.304-7.73-5.528-7.73-5.528zM38.706-87.384s3.045-11.88 7.646-5.643c4.6 6.237-7.646 5.643-7.646 5.643zM43.946-65.92s3.78-9.204 6.627-5.715c2.844 3.49-6.627 5.716-6.627 5.716zM41.996-70.042s-9.107 4.01-8.737-.477c.37-4.484 8.736.478 8.736.478z"/><circle cx="171.671" cy="-87.541" r="24.228"/><circle cx="171.592" cy="-87.423" r="28.322"/><circle cx="171.533" cy="-87.485" r="27.173"/><path d="M175.395-32.062c0 2.24-1.815 4.055-4.056 4.055-2.24 0-4.056-1.816-4.056-4.055V-53.72c0-2.238 1.815-4.053 4.055-4.053 2.24 0 4.055 1.815 4.055 4.054v21.658zM168.47-92.335s.745-6.976-3.776-9.352c-4.523-2.38-3.754-10.496 2.597-10.972 6.35-.474 9.608.22 11.447 2.25 1.842 2.033 3.626 5.674 1.648 8.39-1.985 2.715-4.104 4.534-4.104 4.534s-3.09 4.328-1.565 5.41c1.524 1.086-6.812-.414-6.812-.414M168.973-82.343s-6.414 2.84-6.213 7.944c.204 5.108-7.212 8.5-10.8 3.236-3.586-5.26-4.615-8.425-3.776-11.035.84-2.61 3.1-5.978 6.445-5.62 3.34.357 5.974 1.286 5.974 1.286s5.292.51 5.47-1.35c.178-1.862 3.048 6.106 3.048 6.106M177.374-87.774s5.664 4.134 9.986 1.407c4.318-2.73 10.962 1.997 8.202 7.734-2.766 5.738-4.994 8.21-7.674 8.792-2.678.576-6.725.3-8.085-2.774-1.363-3.074-1.873-5.82-1.873-5.82s-2.206-4.84-3.905-4.062c-1.7.776 3.765-5.69 3.765-5.69"/><path d="M168.827-90.795c1.83-1.534 4.555-1.295 6.088.534 1.534 1.827 1.292 4.553-.534 6.086-1.827 1.534-4.553 1.295-6.086-.536-1.533-1.827-1.295-4.552.533-6.085z"/><circle cx="171.603" cy="-87.485" r="2.881"/><circle cx="171.533" cy="-87.484" r="2.161"/><ellipse cx="171.533" cy="-28.063" rx="17.58" ry="3.18"/><path stroke="#1A171B" stroke-miterlimit="10" d="M175.727-44.762v0-1.26-.49 1.75z"/><path d="M175.395-32.062c0 2.24-1.815 4.055-4.056 4.055-2.24 0-4.056-1.816-4.056-4.055V-53.72c0-2.238 1.815-4.053 4.055-4.053 2.24 0 4.055 1.815 4.055 4.054v21.658zM168.47-92.335s.745-6.976-3.776-9.352c-4.523-2.38-3.754-10.496 2.597-10.972 6.35-.474 9.608.22 11.447 2.25 1.842 2.033 3.626 5.674 1.648 8.39-1.985 2.715-4.104 4.534-4.104 4.534s-3.09 4.328-1.565 5.41c1.524 1.086-6.812-.414-6.812-.414M168.973-82.343s-6.414 2.84-6.213 7.944c.204 5.108-7.212 8.5-10.8 3.236-3.586-5.26-4.615-8.425-3.776-11.035.84-2.61 3.1-5.978 6.445-5.62 3.34.357 5.974 1.286 5.974 1.286s5.292.51 5.47-1.35c.178-1.862 3.048 6.106 3.048 6.106M177.374-87.774s5.664 4.134 9.986 1.407c4.318-2.73 10.962 1.997 8.202 7.734-2.766 5.738-4.994 8.21-7.674 8.792-2.678.576-6.725.3-8.085-2.774-1.363-3.074-1.873-5.82-1.873-5.82s-2.206-4.84-3.905-4.062c-1.7.776 3.765-5.69 3.765-5.69"/><path d="M168.827-90.795c1.83-1.534 4.555-1.295 6.088.534 1.534 1.827 1.292 4.553-.534 6.086-1.827 1.534-4.553 1.295-6.086-.536-1.533-1.827-1.295-4.552.533-6.085z"/><circle cx="171.603" cy="-87.485" r="2.881"/><circle cx="171.533" cy="-87.484" r="2.161"/><ellipse cx="171.533" cy="-28.063" rx="17.58" ry="3.18"/><path stroke="#1A171B" stroke-miterlimit="10" d="M175.727-44.762v0-1.26-.49 1.75z"/><path d="M175.395-33.39c0 2.24-1.815 4.056-4.056 4.056-2.24 0-4.056-1.816-4.056-4.056v-21.656c0-2.24 1.815-4.054 4.055-4.054 2.24 0 4.055 1.815 4.055 4.054v21.656zM168.47-92.335s.745-6.976-3.776-9.352c-4.523-2.38-3.754-10.496 2.597-10.972 6.35-.474 9.608.22 11.447 2.25 1.842 2.033 3.626 5.674 1.648 8.39-1.985 2.715-4.104 4.534-4.104 4.534s-3.09 4.328-1.565 5.41c1.524 1.086-6.812-.414-6.812-.414M168.973-82.343s-6.414 2.84-6.213 7.944c.204 5.108-7.212 8.5-10.8 3.236-3.586-5.26-4.615-8.425-3.776-11.035.84-2.61 3.1-5.978 6.445-5.62 3.34.357 5.974 1.286 5.974 1.286s5.292.51 5.47-1.35c.178-1.862 3.048 6.106 3.048 6.106M177.374-87.774s5.664 4.134 9.986 1.407c4.318-2.73 10.962 1.997 8.202 7.734-2.766 5.738-4.994 8.21-7.674 8.792-2.678.576-6.725.3-8.085-2.774-1.363-3.074-1.873-5.82-1.873-5.82s-2.206-4.84-3.905-4.062c-1.7.776 3.765-5.69 3.765-5.69"/><path d="M168.827-90.795c1.83-1.534 4.555-1.295 6.088.534 1.534 1.827 1.292 4.553-.534 6.086-1.827 1.534-4.553 1.295-6.086-.536-1.533-1.827-1.295-4.552.533-6.085z"/><circle cx="171.603" cy="-87.485" r="2.881"/><circle cx="171.533" cy="-87.484" r="2.161"/><ellipse cx="171.533" cy="-28.063" rx="17.58" ry="3.18"/><path stroke="#1A171B" stroke-miterlimit="10" d="M175.727-45.647v0-1.26-.49 1.75z"/><path d="M-70.625 70.035c-.8.623-1.956.48-2.578-.32L-81.6 58.93c-.623-.8-.48-1.954.32-2.577l37.965-29.56c.8-.624 1.955-.48 2.58.32l8.395 10.782c.623.8.48 1.955-.322 2.578l-37.963 29.562zM-29.23 37.8c-.8.624-1.956.48-2.58-.32l-8.394-10.782c-.625-.8-.48-1.955.32-2.578l4.983-3.88c.8-.625 1.954-.48 2.578.32l8.395 10.782c.624.8.48 1.955-.32 2.578l-4.983 3.88zM-20.866 31.29c-.776.603-1.894.463-2.498-.312l-8.466-10.872c-.605-.776-.466-1.895.31-2.498.776-.604 1.893-.466 2.498.31l8.465 10.873c.605.776.467 1.894-.31 2.5zM-83.21 57.623l10.495 13.506-16.944 2.335"/><path d="M-87.652 70.173l1.677 2.188-3.014.58M-119.312 76.63l3.396-2.815s4.174 10.87 6.503 11.647c2.33.776 11.162-12.52 11.162-12.52l3.882 5.628s-13.492 15.23-14.657 14.41"/><circle cx="49.528" cy="24.75" r="6.375"/><path d="M60.695 37.958c-3.166-6.75-11.167-5.5-11.167-5.5s-8-1.25-11.167 5.5l-5 17.167s.334 4.583 4.5 1.5l4.75-15.75h1.25l-7.665 26.417h6.958v21.583s2.79 4 5.458 0l.168-21.25.75-.083.75.083.167 21.25c2.667 4 5.458 0 5.458 0V67.292l-.708-26.417h1.25l4.75 15.75c4.167 3.083 4.5-1.5 4.5-1.5l-5-17.167z"/></svg>