<svg xmlns="http://www.w3.org/2000/svg" xmlns:xlink="http://www.w3.org/1999/xlink" version="1.1" id="Layer_1" x="0px" y="0px" width="100px" height="100px" viewBox="5.0 -10.0 100.0 135.0" enable-background="new 0 0 100 100" xml:space="preserve">

<circle fill="#000000" cx="-74.666" cy="-75.211" r="13.519"/>
<circle fill="#000000" cx="-74.666" cy="-75.211" r="0.693"/>
<rect x="-74.706" y="-88.063" fill="#000000" width="0.275" height="2.08"/>
<rect x="-80.625" y="-86.53" transform="matrix(0.8667 -0.4988 0.4988 0.8667 31.915 -51.5416)" fill="#000000" width="0.276" height="2.08"/>
<rect x="-84.984" y="-82.243" transform="matrix(0.4996 -0.8663 0.8663 0.4996 27.8839 -114.1362)" fill="#000000" width="0.276" height="2.08"/>
<rect x="-87.518" y="-75.447" fill="#000000" width="2.08" height="0.276"/>
<rect x="-85.082" y="-70.43" transform="matrix(-0.4996 -0.8663 0.8663 -0.4996 -67.269 -177.6404)" fill="#000000" width="0.276" height="2.08"/>
<rect x="-80.795" y="-66.071" transform="matrix(-0.866 -0.5001 0.5001 -0.866 -117.9777 -161.6826)" fill="#000000" width="0.276" height="2.08"/>
<rect x="-74.901" y="-64.439" fill="#000000" width="0.275" height="2.081"/>
<rect x="-68.983" y="-65.973" transform="matrix(-0.8667 0.4988 -0.4988 -0.8667 -160.902 -86.8703)" fill="#000000" width="0.276" height="2.08"/>
<rect x="-64.623" y="-70.26" transform="matrix(-0.5022 0.8647 -0.8647 -0.5022 -156.7287 -48.221)" fill="#000000" width="0.276" height="2.08"/>
<rect x="-63.894" y="-75.251" fill="#000000" width="2.081" height="0.276"/>
<rect x="-64.525" y="-82.073" transform="matrix(0.498 0.8672 -0.8672 0.498 -102.5872 15.1587)" fill="#000000" width="0.276" height="2.081"/>
<rect x="-68.813" y="-86.432" transform="matrix(0.8643 0.503 -0.503 0.8643 -52.2708 22.9544)" fill="#000000" width="0.276" height="2.08"/>
<g>
	<line fill="#000000" x1="-74.722" y1="-75.111" x2="-66.699" y2="-75.111"/>
	<path fill="#000000" d="M-74.722-75.199c0,0,2.006-0.396,4.012-0.613c0.501-0.058,1.003-0.195,1.473-0.211   c0.471,0.003,0.909,0.093,1.285,0.211c0.753,0.22,1.254,0.613,1.254,0.613v0.175c0,0-0.501,0.393-1.254,0.613   c-0.376,0.118-0.814,0.208-1.285,0.211c-0.47-0.017-0.972-0.153-1.473-0.211c-2.006-0.217-4.012-0.612-4.012-0.613V-75.199z"/>
</g>
<g>
	<line fill="#000000" x1="-74.618" y1="-75.193" x2="-74.618" y2="-84.641"/>
	<path fill="#000000" d="M-74.706-75.193c0,0-0.395-2.362-0.612-4.724c-0.059-0.59-0.195-1.181-0.211-1.735   c0.003-0.553,0.093-1.07,0.211-1.513c0.22-0.886,0.613-1.476,0.612-1.476h0.176c-0.001,0,0.393,0.59,0.612,1.476   c0.118,0.443,0.208,0.96,0.211,1.513c-0.016,0.554-0.152,1.145-0.211,1.735c-0.218,2.362-0.612,4.724-0.612,4.724H-74.706z"/>
</g>
<path fill="#000000" d="M58.625-57.188c0-0.991-0.722-1.807-1.667-1.966C58.009-58.588,58.625-57.914,58.625-57.188z"/>
<path fill="#000000" d="M39.542-59.155c-0.945,0.159-1.667,0.976-1.667,1.966C37.875-57.914,38.491-58.588,39.542-59.155z"/>
<path fill="#000000" d="M48.25-53.563c-5.729,0-10.375-1.623-10.375-3.625v20.607v11.229c0,1.104,0.896,2,2,2h8.375h8.375  c1.104,0,2-0.896,2-2v-11.229v-20.607C58.625-55.186,53.979-53.563,48.25-53.563z"/>
<path fill="#000000" d="M56.958-59.834c-1.849-0.997-5.055-1.659-8.708-1.659s-6.859,0.662-8.708,1.659  c-1.051,0.566-1.667,1.241-1.667,1.966c0,2.002,4.646,3.625,10.375,3.625s10.375-1.623,10.375-3.625  C58.625-58.594,58.009-59.268,56.958-59.834z"/>
<line fill="#000000" x1="52" y1="-48.042" x2="51.5" y2="-48.042"/>
<line fill="#000000" x1="52.123" y1="-93.242" x2="52.623" y2="-93.242"/>
<line fill="#000000" x1="48.5" y1="-48.042" x2="48" y2="-48.042"/>
<line fill="#000000" x1="48" y1="-93.469" x2="48.5" y2="-93.469"/>
<rect x="53.381" y="-85.224" transform="matrix(0.9185 0.3955 -0.3955 0.9185 -23.4421 -27.025)" fill="#000000" width="0.874" height="29.722"/>
<circle fill="#000000" cx="60.639" cy="-86.223" r="1.5"/>
<path fill="#000000" d="M61.627-88.52c0,0-3.365-11.79,3.754-8.728S61.627-88.52,61.627-88.52z"/>
<path fill="#000000" d="M58.76-87.872c0,0-12.252-0.442-7.141-6.267C56.731-99.964,58.76-87.872,58.76-87.872z"/>
<path fill="#000000" d="M58.49-84.946c0,0-4.208,11.517-8.167,4.855C46.363-86.753,58.49-84.946,58.49-84.946z"/>
<path fill="#000000" d="M61.189-83.785c0,0,9.653,7.561,2.095,9.268C55.724-72.809,61.189-83.785,61.189-83.785z"/>
<path fill="#000000" d="M63.127-85.993c0,0,10.176-6.845,9.463,0.872C71.877-77.402,63.127-85.993,63.127-85.993z"/>
<path fill="#000000" d="M52.322-67.034c0,0,8.945-4.358,8.749,0.14C60.874-62.397,52.322-67.034,52.322-67.034z"/>
<rect x="41.715" y="-84.381" transform="matrix(0.9489 -0.3156 0.3156 0.9489 24.0911 9.7493)" fill="#000000" width="0.873" height="29.723"/>
<circle fill="#000000" cx="36.698" cy="-85.9" r="1.5"/>
<path fill="#000000" d="M35.905-88.272c0,0-10.355-6.565-3.003-9.014C40.256-99.735,35.905-88.272,35.905-88.272z"/>
<path fill="#000000" d="M34.194-85.881c0,0-9.441,7.819-9.5,0.07C24.638-93.561,34.194-85.881,34.194-85.881z"/>
<path fill="#000000" d="M35.94-83.517c0,0,4.52,11.398-2.868,9.058C25.683-76.8,35.94-83.517,35.94-83.517z"/>
<path fill="#000000" d="M38.728-84.446c0,0,12.238-0.775,7.729,5.528C41.948-72.614,38.728-84.446,38.728-84.446z"/>
<path fill="#000000" d="M38.706-87.384c0,0,3.045-11.879,7.646-5.643C50.953-86.79,38.706-87.384,38.706-87.384z"/>
<path fill="#000000" d="M43.946-65.919c0,0,3.781-9.205,6.627-5.716C53.417-68.146,43.946-65.919,43.946-65.919z"/>
<path fill="#000000" d="M41.996-70.042c0,0-9.107,4.011-8.737-0.477C33.629-75.004,41.996-70.042,41.996-70.042z"/>
<circle fill="#000000" cx="171.671" cy="-87.541" r="24.228"/>
<circle cx="171.592" cy="-87.423" r="28.322"/>
<circle fill="#000000" cx="171.533" cy="-87.485" r="27.173"/>
<path fill="#000000" d="M175.395-32.062c0,2.239-1.815,4.055-4.056,4.055l0,0c-2.24,0-4.055-1.816-4.055-4.055v-21.657  c0-2.239,1.815-4.054,4.055-4.054l0,0c2.24,0,4.056,1.815,4.056,4.054V-32.062z"/>
<path fill="#000000" d="M168.469-92.335c0,0,0.746-6.976-3.775-9.352c-4.523-2.379-3.754-10.496,2.597-10.972  c6.35-0.475,9.607,0.218,11.446,2.249c1.842,2.033,3.626,5.674,1.648,8.391c-1.985,2.714-4.104,4.533-4.104,4.533  s-3.091,4.328-1.566,5.411c1.524,1.085-6.812-0.415-6.812-0.415"/>
<path fill="#000000" d="M168.973-82.343c0,0-6.414,2.839-6.213,7.944c0.204,5.107-7.212,8.499-10.799,3.235  c-3.587-5.26-4.616-8.425-3.777-11.035c0.839-2.611,3.101-5.979,6.445-5.622c3.34,0.358,5.975,1.287,5.975,1.287  s5.292,0.511,5.471-1.35c0.177-1.862,3.047,6.106,3.047,6.106"/>
<path fill="#000000" d="M177.374-87.774c0,0,5.664,4.134,9.986,1.407c4.318-2.73,10.962,1.997,8.202,7.734  c-2.766,5.738-4.994,8.21-7.674,8.792c-2.678,0.577-6.725,0.301-8.085-2.773c-1.363-3.074-1.873-5.819-1.873-5.819  s-2.206-4.84-3.905-4.063c-1.701,0.776,3.765-5.691,3.765-5.691"/>
<path fill="#000000" d="M168.827-90.795c1.83-1.534,4.555-1.295,6.088,0.534c1.534,1.828,1.292,4.554-0.534,6.087  c-1.828,1.534-4.554,1.295-6.087-0.536C166.761-86.537,166.999-89.262,168.827-90.795z"/>
<circle fill="#000000" cx="171.603" cy="-87.485" r="2.881"/>
<circle fill="#000000" cx="171.533" cy="-87.484" r="2.161"/>
<ellipse fill="#000000" cx="171.533" cy="-28.063" rx="17.58" ry="3.18"/>
<path fill="#000000" stroke="#1A171B" stroke-miterlimit="10" d="M175.727-44.762c0,0.267,0,0.49,0,0.49l0,0  C175.727-44.272,175.727-44.495,175.727-44.762v-1.261c0-0.271,0-0.49,0-0.49l0,0c0,0,0,0.219,0,0.49V-44.762z"/>
<path fill="#000000" d="M175.395-32.062c0,2.239-1.815,4.055-4.056,4.055l0,0c-2.24,0-4.055-1.816-4.055-4.055v-21.657  c0-2.239,1.815-4.054,4.055-4.054l0,0c2.24,0,4.056,1.815,4.056,4.054V-32.062z"/>
<path fill="#000000" d="M168.469-92.335c0,0,0.746-6.976-3.775-9.352c-4.523-2.379-3.754-10.496,2.597-10.972  c6.35-0.475,9.607,0.218,11.446,2.249c1.842,2.033,3.626,5.674,1.648,8.391c-1.985,2.714-4.104,4.533-4.104,4.533  s-3.091,4.328-1.566,5.411c1.524,1.085-6.812-0.415-6.812-0.415"/>
<path fill="#000000" d="M168.973-82.343c0,0-6.414,2.839-6.213,7.944c0.204,5.107-7.212,8.499-10.799,3.235  c-3.587-5.26-4.616-8.425-3.777-11.035c0.839-2.611,3.101-5.979,6.445-5.622c3.34,0.358,5.975,1.287,5.975,1.287  s5.292,0.511,5.471-1.35c0.177-1.862,3.047,6.106,3.047,6.106"/>
<path fill="#000000" d="M177.374-87.774c0,0,5.664,4.134,9.986,1.407c4.318-2.73,10.962,1.997,8.202,7.734  c-2.766,5.738-4.994,8.21-7.674,8.792c-2.678,0.577-6.725,0.301-8.085-2.773c-1.363-3.074-1.873-5.819-1.873-5.819  s-2.206-4.84-3.905-4.063c-1.701,0.776,3.765-5.691,3.765-5.691"/>
<path fill="#000000" d="M168.827-90.795c1.83-1.534,4.555-1.295,6.088,0.534c1.534,1.828,1.292,4.554-0.534,6.087  c-1.828,1.534-4.554,1.295-6.087-0.536C166.761-86.537,166.999-89.262,168.827-90.795z"/>
<circle fill="#000000" cx="171.603" cy="-87.485" r="2.881"/>
<circle fill="#000000" cx="171.533" cy="-87.484" r="2.161"/>
<ellipse fill="#000000" cx="171.533" cy="-28.063" rx="17.58" ry="3.18"/>
<path fill="#000000" stroke="#1A171B" stroke-miterlimit="10" d="M175.727-44.762c0,0.267,0,0.49,0,0.49l0,0  C175.727-44.272,175.727-44.495,175.727-44.762v-1.261c0-0.271,0-0.49,0-0.49l0,0c0,0,0,0.219,0,0.49V-44.762z"/>
<path fill="#000000" d="M175.395-33.39c0,2.24-1.815,4.056-4.056,4.056l0,0c-2.24,0-4.055-1.816-4.055-4.056v-21.656  c0-2.239,1.815-4.054,4.055-4.054l0,0c2.24,0,4.056,1.815,4.056,4.054V-33.39z"/>
<path d="M168.469-92.335c0,0,0.746-6.976-3.775-9.352c-4.523-2.379-3.754-10.496,2.597-10.972c6.35-0.475,9.607,0.218,11.446,2.249  c1.842,2.033,3.626,5.674,1.648,8.391c-1.985,2.714-4.104,4.533-4.104,4.533s-3.091,4.328-1.566,5.411  c1.524,1.085-6.812-0.415-6.812-0.415"/>
<path d="M168.973-82.343c0,0-6.414,2.839-6.213,7.944c0.204,5.107-7.212,8.499-10.799,3.235c-3.587-5.26-4.616-8.425-3.777-11.035  c0.839-2.611,3.101-5.979,6.445-5.622c3.34,0.358,5.975,1.287,5.975,1.287s5.292,0.511,5.471-1.35  c0.177-1.862,3.047,6.106,3.047,6.106"/>
<path d="M177.374-87.774c0,0,5.664,4.134,9.986,1.407c4.318-2.73,10.962,1.997,8.202,7.734c-2.766,5.738-4.994,8.21-7.674,8.792  c-2.678,0.577-6.725,0.301-8.085-2.773c-1.363-3.074-1.873-5.819-1.873-5.819s-2.206-4.84-3.905-4.063  c-1.701,0.776,3.765-5.691,3.765-5.691"/>
<path d="M168.827-90.795c1.83-1.534,4.555-1.295,6.088,0.534c1.534,1.828,1.292,4.554-0.534,6.087  c-1.828,1.534-4.554,1.295-6.087-0.536C166.761-86.537,166.999-89.262,168.827-90.795z"/>
<circle fill="#000000" cx="171.603" cy="-87.485" r="2.881"/>
<circle cx="171.533" cy="-87.484" r="2.161"/>
<ellipse fill="#000000" cx="171.533" cy="-28.063" rx="17.58" ry="3.18"/>
<path fill="#000000" stroke="#1A171B" stroke-miterlimit="10" d="M175.727-45.647c0,0.267,0,0.49,0,0.49l0,0  C175.727-45.158,175.727-45.38,175.727-45.647v-1.261c0-0.271,0-0.49,0-0.49l0,0c0,0,0,0.22,0,0.49V-45.647z"/>
<path d="M-70.625,70.035c-0.8,0.623-1.956,0.479-2.578-0.321l-8.396-10.783c-0.624-0.8-0.48-1.955,0.32-2.578l37.964-29.561  c0.8-0.623,1.955-0.479,2.579,0.321l8.396,10.782c0.623,0.8,0.48,1.955-0.322,2.578L-70.625,70.035z"/>
<path d="M-29.23,37.801c-0.801,0.623-1.956,0.479-2.579-0.321l-8.395-10.782c-0.625-0.801-0.481-1.955,0.32-2.578l4.983-3.881  c0.8-0.624,1.955-0.479,2.579,0.321l8.395,10.782c0.624,0.801,0.48,1.955-0.321,2.578L-29.23,37.801z"/>
<path d="M-20.866,31.289c-0.776,0.604-1.894,0.464-2.498-0.311l-8.466-10.872c-0.605-0.776-0.466-1.895,0.31-2.498l0,0  c0.776-0.604,1.893-0.466,2.498,0.311l8.465,10.872C-19.952,29.566-20.09,30.684-20.866,31.289L-20.866,31.289z"/>
<polygon points="-83.21,57.623 -72.715,71.129 -89.659,73.465 "/>
<polygon fill="#000000" points="-87.652,70.173 -85.975,72.361 -88.989,72.941 "/>
<path d="M-119.312,76.629l3.396-2.814c0,0,4.174,10.871,6.503,11.647c2.33,0.776,11.162-12.521,11.162-12.521l3.883,5.629  c0,0-13.492,15.229-14.657,14.41"/>
<circle cx="49.528" cy="24.75" r="6.375"/>
<path d="M60.695,37.958c-3.166-6.75-11.167-5.5-11.167-5.5s-8.001-1.25-11.167,5.5l-5,17.167c0,0,0.333,4.583,4.5,1.5l4.75-15.75  h1.25l-7.666,26.417h6.958v21.583c0,0,2.791,4,5.458,0l0.167-21.25l0.75-0.083l0.75,0.083l0.167,21.25c2.667,4,5.458,0,5.458,0  V67.292l-0.708-26.417h1.25l4.75,15.75c4.167,3.083,4.5-1.5,4.5-1.5L60.695,37.958z"/>
</svg>